# xmcd
#
# Track frame offsets: 
#        150
#        13809
#        29475
#        38211
#        50599
#        64119
#        71604
#        83264
#        94551
#        109303
#        121950
#        138776
#        147199
#
# Disc length: 2058 seconds
#
# Revision: 0
# Processed by: cddbd v1.5.2PL0 Copyright (c) Steve Scherf et al.
# Submitted via: ExactAudioCopy v0.99pb5
#
DISCID=ac08080d
DTITLE=Muzz Gibson - Reach!
DYEAR=1999
DGENRE=Country
TTITLE0=3 O'Clock Jump
TTITLE1=The Same Way
TTITLE2=Spoiled It All Again
TTITLE3=10 Minute Meal
TTITLE4=Nobody Knows Me Now
TTITLE5=Coffee Shop Blues
TTITLE6=Fine and Dandy
TTITLE7=When You Come Down
TTITLE8=Papa Calling
TTITLE9=Reefer Haulin' Blues
TTITLE10=Travel On
TTITLE11=Take a Little Water
TTITLE12=Top of the World
EXTD=
EXTT0=
EXTT1=
EXTT2=
EXTT3=
EXTT4=
EXTT5=
EXTT6=
EXTT7=
EXTT8=
EXTT9=
EXTT10=
EXTT11=
EXTT12=
PLAYORDER=
